<?xml version="1.0" encoding="UTF-8"?>
<svg version="1.1" xmlns="http://www.w3.org/2000/svg" width="666" height="375">
<path d="M0 0 C0.88171875 0.76054688 1.7634375 1.52109375 2.671875 2.3046875 C3.83250323 3.28223642 4.99402048 4.25873043 6.15625 5.234375 C9.69666305 8.21824318 13.19045032 11.25238699 16.671875 14.3046875 C17.38730469 14.92085937 18.10273438 15.53703125 18.83984375 16.171875 C26.63958904 23.34692673 31.88376267 33.18140716 34.671875 43.3046875 C35.20904783 44.8271139 35.75077436 46.34794068 36.296875 47.8671875 C41.68590217 64.34463183 39.2832148 84.56726515 32.671875 100.3046875 C29.78420736 105.84268024 26.7376548 111.52936718 22.671875 116.3046875 C22.011875 116.3046875 21.351875 116.3046875 20.671875 116.3046875 C20.341875 117.2946875 20.011875 118.2846875 19.671875 119.3046875 C19.011875 119.3046875 18.351875 119.3046875 17.671875 119.3046875 C17.011875 120.6246875 16.351875 121.9446875 15.671875 123.3046875 C15.011875 123.3046875 14.351875 123.3046875 13.671875 123.3046875 C13.671875 123.9646875 13.671875 124.6246875 13.671875 125.3046875 C11.71353279 126.77344416 9.7536747 128.02388502 7.671875 129.3046875 C6.90230469 129.83449219 6.13273438 130.36429688 5.33984375 130.91015625 C-11.91794212 142.09438658 -35.68257849 146.29604651 -55.8203125 142.328125 C-74.63259021 138.14284741 -88.40477603 131.20326806 -102.7734375 118.4140625 C-105.50515197 115.99195194 -108.31026788 113.76467883 -111.265625 111.6171875 C-123.36007028 102.31376805 -131.43766653 86.56046729 -134.02636719 71.65625 C-136.35846305 53.48250622 -135.40526824 33.57318224 -124.328125 18.3046875 C-124.07417969 17.55574219 -123.82023437 16.80679688 -123.55859375 16.03515625 C-121.82285212 12.18346293 -119.20965774 9.48181026 -116.328125 6.4296875 C-115.74144043 5.80763428 -115.15475586 5.18558105 -114.55029297 4.54467773 C-85.1526768 -25.97807193 -32.02596734 -26.89762616 0 0 Z M12.671875 43.3046875 C13.001875 43.9646875 13.331875 44.6246875 13.671875 45.3046875 C14.331875 44.9746875 14.991875 44.6446875 15.671875 44.3046875 C14.681875 43.9746875 13.691875 43.6446875 12.671875 43.3046875 Z M-53.84375 54.921875 C-57.26919464 59.50882098 -58.47232328 63.18940085 -58.453125 68.9296875 C-58.45570312 69.70570313 -58.45828125 70.48171875 -58.4609375 71.28125 C-58.45485869 73.37427998 -58.45485869 73.37427998 -57.328125 75.3046875 C-49.81393303 75.91809093 -46.40810444 73.35800713 -40.328125 69.3046875 C-37.33862283 62.88279395 -36.01659549 57.23927602 -38.328125 50.3046875 C-44.26442356 49.94124065 -49.55776392 50.34868367 -53.84375 54.921875 Z M12.10546875 55.37109375 C10.0051094 58.2040035 10.05463765 60.75528287 9.734375 64.2421875 C9.07809758 70.5076932 7.66226848 76.00798069 5.37890625 81.9140625 C4.39100846 84.41591764 4.39100846 84.41591764 5.671875 87.3046875 C8.09454586 87.35636277 8.09454586 87.35636277 10.671875 86.3046875 C15.71825718 77.52024445 16.4841793 66.23812156 16.671875 56.3046875 C16.341875 55.6446875 16.011875 54.9846875 15.671875 54.3046875 C13.63158921 54.1171005 13.63158921 54.1171005 12.10546875 55.37109375 Z " fill="#635BFD" transform="translate(162.328125,125.6953125)"/>
<path d="M0 0 C1.39120471 0.00015906 2.78241534 0.00585033 4.17358398 0.01586914 C4.90463852 0.01728409 5.63569305 0.01869904 6.38890076 0.02015686 C8.73253406 0.02577131 11.07607313 0.03832617 13.41967773 0.05102539 C15.00496282 0.05603853 16.59024939 0.06060176 18.17553711 0.06469727 C22.06945383 0.07574542 25.96329979 0.09301967 29.85717773 0.11352539 C30.51717773 2.42352539 31.17717773 4.73352539 31.85717773 7.11352539 C32.3122168 6.60821289 32.76725586 6.10290039 33.23608398 5.58227539 C40.92778852 -1.35264248 49.44919623 -1.06108235 59.37670898 -0.57006836 C67.3108157 0.17245339 72.43679951 3.16752111 77.61108398 9.13696289 C79.04467773 11.05102539 79.04467773 11.05102539 80.85717773 14.11352539 C81.51717773 13.12352539 82.17717773 12.13352539 82.85717773 11.11352539 C86.34745936 6.37671462 90.1555831 2.01405693 95.85717773 0.11352539 C99.66578244 -0.11811315 103.47976485 -0.07164133 107.29467773 -0.07397461 C108.34461914 -0.0862207 109.39456055 -0.0984668 110.47631836 -0.11108398 C111.99322266 -0.11398438 111.99322266 -0.11398438 113.54077148 -0.11694336 C114.4643042 -0.12105225 115.38783691 -0.12516113 116.33935547 -0.12939453 C118.96849486 0.12426529 120.60010442 0.77963504 122.85717773 2.11352539 C122.85717773 2.77352539 122.85717773 3.43352539 122.85717773 4.11352539 C123.84717773 4.11352539 124.83717773 4.11352539 125.85717773 4.11352539 C125.85717773 4.77352539 125.85717773 5.43352539 125.85717773 6.11352539 C126.45143555 6.34168945 127.04569336 6.56985352 127.65795898 6.80493164 C130.46081847 8.47270771 131.43509146 10.23321497 133.04467773 13.05102539 C133.55385742 13.92629883 134.06303711 14.80157227 134.58764648 15.70336914 C140.46503432 26.86136389 138.01319798 44.14412828 137.98754883 56.41625977 C137.98210253 59.53154171 137.98757055 62.64668483 137.99389648 65.76196289 C137.99323712 67.74112988 137.99195889 69.72029677 137.98999023 71.69946289 C137.99201447 72.63156586 137.9940387 73.56366882 137.99612427 74.52401733 C137.99139603 75.80268173 137.99139603 75.80268173 137.98657227 77.10717773 C137.98577667 77.85913422 137.98498108 78.6110907 137.98416138 79.38583374 C137.85717773 81.11352539 137.85717773 81.11352539 136.85717773 82.11352539 C134.42057328 82.21435303 132.01293072 82.25325142 129.57592773 82.24633789 C128.84724487 82.24729462 128.11856201 82.24825134 127.36779785 82.24923706 C125.82438063 82.24991875 124.28096057 82.24806527 122.73754883 82.24389648 C120.36720374 82.23854801 117.99704814 82.24384181 115.62670898 82.25024414 C114.13061481 82.24958336 112.63452076 82.24830219 111.13842773 82.24633789 C110.42489136 82.24836212 109.71135498 82.25038635 108.97619629 82.25247192 C103.97212965 82.2284773 103.97212965 82.2284773 102.85717773 81.11352539 C102.76083409 79.66657693 102.73202279 78.21504473 102.73120117 76.76489258 C102.72739441 75.84013123 102.72358765 74.91536987 102.71966553 73.96258545 C102.71863831 72.95536438 102.71761108 71.94814331 102.71655273 70.91040039 C102.698222 68.79450423 102.67865145 66.67861852 102.65795898 64.56274414 C102.62899117 61.21377029 102.60717802 57.86546467 102.60668945 54.51635742 C102.60335602 51.29292959 102.56880449 48.07105828 102.52905273 44.84790039 C102.53612244 43.84877625 102.54319214 42.8496521 102.55047607 41.82025146 C102.46742518 37.0777907 102.4206995 34.844525 99.4519043 30.9934082 C96.409464 28.7891562 94.54178229 28.11352539 90.85717773 28.11352539 C90.85717773 28.77352539 90.85717773 29.43352539 90.85717773 30.11352539 C89.54517369 31.46785214 88.2108637 32.80086021 86.85717773 34.11352539 C85.69284385 36.44219316 85.70877267 37.86071204 85.66772461 40.45556641 C85.65100708 41.35312149 85.63428955 42.25067657 85.61706543 43.1754303 C85.60348999 44.14629074 85.58991455 45.11715118 85.57592773 46.11743164 C85.55751831 47.11105209 85.53910889 48.10467255 85.5201416 49.12840271 C85.44125886 53.39278125 85.37357508 57.6573213 85.30493164 61.921875 C85.25334265 65.02881016 85.19604535 68.13560341 85.13842773 71.24243164 C85.12485229 72.21531631 85.11127686 73.18820099 85.09729004 74.19056702 C85.08057251 75.08496994 85.06385498 75.97937286 85.04663086 76.90087891 C85.02783875 78.08762962 85.02783875 78.08762962 85.00866699 79.2983551 C84.85717773 81.11352539 84.85717773 81.11352539 83.85717773 82.11352539 C81.40887347 82.20196332 78.98897175 82.22881291 76.54077148 82.21118164 C75.44418968 82.20905922 75.44418968 82.20905922 74.32545471 82.20689392 C71.98182141 82.20127947 69.63828234 82.18872461 67.29467773 82.17602539 C65.70939265 82.17101225 64.12410608 82.16644902 62.53881836 82.16235352 C58.64490163 82.15130536 54.75105568 82.13403111 50.85717773 82.11352539 C50.84783203 80.88835205 50.83848633 79.66317871 50.82885742 78.40087891 C50.78875025 73.82141806 50.72293493 69.24261445 50.6496582 64.66357422 C50.62156824 62.68807468 50.60029459 60.71246524 50.58618164 58.73681641 C50.56458541 55.88395409 50.5178514 53.03239648 50.46655273 50.17993164 C50.4653241 49.30768448 50.46409546 48.43543732 50.46282959 47.53675842 C50.33377399 42.03782319 49.26784586 37.949764 46.80841064 33.02134705 C45.85717773 31.11352539 45.85717773 31.11352539 44.85717773 28.11352539 C41.86265666 27.68573667 39.72285703 27.52247539 37.15795898 29.27368164 C32.54917145 33.63696475 31.86254661 37.24834931 31.66772461 43.52075195 C31.63289478 45.26513875 31.60254492 47.00961895 31.57592773 48.75415039 C31.55751831 49.67693787 31.53910889 50.59972534 31.5201416 51.55047607 C31.44159284 55.48967124 31.37342592 59.42902722 31.30493164 63.3684082 C31.25337476 66.24707939 31.19609346 69.12559617 31.13842773 72.00415039 C31.12485229 72.90200256 31.11127686 73.79985474 31.09729004 74.72491455 C30.9700681 81.00063503 30.9700681 81.00063503 29.85717773 82.11352539 C27.42057328 82.21435303 25.01293072 82.25325142 22.57592773 82.24633789 C21.84724487 82.24729462 21.11856201 82.24825134 20.36779785 82.24923706 C18.82438063 82.24991875 17.28096057 82.24806527 15.73754883 82.24389648 C13.36720374 82.23854801 10.99704814 82.24384181 8.62670898 82.25024414 C7.13061481 82.24958336 5.63452076 82.24830219 4.13842773 82.24633789 C3.06812317 82.24937424 3.06812317 82.24937424 1.97619629 82.25247192 C-3.02787035 82.2284773 -3.02787035 82.2284773 -4.14282227 81.11352539 C-4.24316093 78.62398842 -4.27900169 76.16217586 -4.2722168 73.67211914 C-4.27396912 72.89329376 -4.27572144 72.11446838 -4.27752686 71.31204224 C-4.28194576 68.72501428 -4.27900726 66.1380541 -4.27563477 63.55102539 C-4.27630779 61.76123033 -4.27727781 59.97143537 -4.27853394 58.18164062 C-4.28001096 54.42552828 -4.27785621 50.66943967 -4.27319336 46.91333008 C-4.26749607 42.08752046 -4.27077505 37.26176644 -4.27676582 32.43595886 C-4.28037131 28.73864316 -4.27923291 25.04134075 -4.27663803 21.34402466 C-4.27596873 19.56413771 -4.2767973 17.78424957 -4.27911758 16.00436401 C-4.28164392 13.52118717 -4.27780381 11.03810165 -4.2722168 8.55493164 C-4.27424103 7.81203888 -4.27626526 7.06914612 -4.27835083 6.30374146 C-4.25258457 0.15361235 -4.25258457 0.15361235 0 0 Z " fill="#090909" transform="translate(497.142822265625,183.886474609375)"/>
<path d="M0 0 C4.68139254 -0.02465288 9.36274759 -0.04283739 14.04418945 -0.05493164 C15.63794614 -0.05997157 17.23169819 -0.0668035 18.82543945 -0.07543945 C21.11150253 -0.08751999 23.39750467 -0.09323155 25.68359375 -0.09765625 C26.40026718 -0.10281754 27.11694061 -0.10797882 27.85533142 -0.11329651 C29.57063672 -0.11349263 31.28581266 -0.06192007 33 0 C34.54482296 1.54482296 34.13978291 2.99838013 34.15771484 5.14916992 C34.16797699 6.03066208 34.17823914 6.91215424 34.18881226 7.82035828 C34.19611359 8.78069473 34.20341492 9.74103119 34.2109375 10.73046875 C34.23901797 12.75065898 34.26768251 14.77084116 34.296875 16.79101562 C34.33807317 19.98608068 34.37494623 23.18099739 34.40136719 26.3762207 C34.4290361 29.45295613 34.4749235 32.52900072 34.5234375 35.60546875 C34.52669037 36.55568405 34.52994324 37.50589935 34.53329468 38.48490906 C34.62977015 43.71009681 35.02717388 47.50345263 38 52 C40.7459726 53.3729863 42.9589047 53.12412634 46 53 C46.99 52.67 47.98 52.34 49 52 C50.15835673 49.02496878 50.15835673 49.02496878 51 46 C51.33 45.67 51.66 45.34 52 45 C52.11679712 43.62459863 52.16718305 42.24345318 52.18945312 40.86328125 C52.21452942 39.54686646 52.21452942 39.54686646 52.2401123 38.20385742 C52.25368774 37.24970947 52.26726318 36.29556152 52.28125 35.3125 C52.29965942 34.33966064 52.31806885 33.36682129 52.33703613 32.36450195 C52.39599022 29.24306477 52.44872456 26.12157222 52.5 23 C52.56741771 18.89571082 52.64108637 14.79160663 52.71875 10.6875 C52.73232544 9.73335205 52.74590088 8.7792041 52.7598877 7.79614258 C52.78496399 6.47972778 52.78496399 6.47972778 52.81054688 5.13671875 C52.82933899 3.97209106 52.82933899 3.97209106 52.84851074 2.78393555 C53 1 53 1 54 0 C56.43660446 -0.10082764 58.84424701 -0.13972603 61.28125 -0.1328125 C62.00993286 -0.13376923 62.73861572 -0.13472595 63.48937988 -0.13571167 C65.0327971 -0.13639335 66.57621717 -0.13453988 68.11962891 -0.13037109 C70.489974 -0.12502262 72.86012959 -0.13031642 75.23046875 -0.13671875 C76.72656292 -0.13605797 78.22265697 -0.1347768 79.71875 -0.1328125 C80.43228638 -0.13483673 81.14582275 -0.13686096 81.88098145 -0.13894653 C86.88504809 -0.11495191 86.88504809 -0.11495191 88 1 C88.09504251 3.52541002 88.12557158 6.02337126 88.11352539 8.54907227 C88.11367142 9.33925751 88.11381744 10.12944275 88.1139679 10.943573 C88.11326857 13.56787822 88.10547527 16.19211336 88.09765625 18.81640625 C88.09579214 20.63101665 88.0943682 22.44562756 88.09336853 24.26023865 C88.08954279 29.0459023 88.07971204 33.8315358 88.06866455 38.6171875 C88.05845163 43.49674064 88.05387117 48.37629864 88.04882812 53.25585938 C88.03808981 62.83725499 88.02049257 72.41862028 88 82 C76.45 82 64.9 82 53 82 C52.505 78.04 52.505 78.04 52 74 C51.46375 74.763125 50.9275 75.52625 50.375 76.3125 C46.61167181 80.57100295 42.50255097 82.11863902 37 83 C27.34420197 83.52556875 19.44357299 83.06614379 11 78 C8.8125 75.5 8.8125 75.5 7 73 C6.25169922 72.29810547 6.25169922 72.29810547 5.48828125 71.58203125 C3.84320868 69.83333206 3.18229036 68.4363803 2.375 66.1875 C2.13523437 65.54167969 1.89546875 64.89585937 1.6484375 64.23046875 C0.29347061 59.56970914 -0.12446973 55.01561892 -0.11352539 50.17822266 C-0.11344986 49.05751373 -0.11337433 47.93680481 -0.11329651 46.78213501 C-0.10813522 45.58817108 -0.10297394 44.39420715 -0.09765625 43.1640625 C-0.0962413 41.92957367 -0.09482635 40.69508484 -0.09336853 39.42318726 C-0.08778272 35.49043325 -0.07523275 31.55773672 -0.0625 27.625 C-0.05691912 24.95442792 -0.05292058 22.28385637 -0.04882812 19.61328125 C-0.03781792 13.07550131 -0.02109385 6.53775476 0 0 Z " fill="#0B0B0B" transform="translate(395,184)"/>
<path d="M0 0 C1.39120471 0.00015906 2.78241534 0.00585033 4.17358398 0.01586914 C4.90463852 0.01728409 5.63569305 0.01869904 6.38890076 0.02015686 C8.73253406 0.02577131 11.07607313 0.03832617 13.41967773 0.05102539 C15.00496282 0.05603853 16.59024939 0.06060176 18.17553711 0.06469727 C22.06945383 0.07574542 25.96329979 0.09301967 29.85717773 0.11352539 C29.87119629 1.99672485 29.87119629 1.99672485 29.88549805 3.91796875 C29.92559558 8.60923775 29.99140851 13.29986452 30.06469727 17.99072266 C30.09279274 20.0147268 30.11406368 22.03883833 30.12817383 24.06298828 C30.14976222 26.9853366 30.19649286 29.90640916 30.24780273 32.82836914 C30.24903137 33.72249008 30.25026001 34.61661102 30.25152588 35.53782654 C30.38918423 41.54308418 31.35539509 47.08359054 34.85717773 52.11352539 C38.80397006 53.38213721 41.94002421 53.52370066 45.85717773 52.11352539 C46.04280273 51.30915039 46.04280273 51.30915039 46.23217773 50.48852539 C46.85717773 48.11352539 46.85717773 48.11352539 47.87036133 45.57592773 C49.14273286 41.11160981 49.21112283 36.96021786 49.27124023 32.34008789 C49.29060638 31.41634369 49.30997253 30.49259949 49.32992554 29.54086304 C49.38943479 26.60684275 49.43599169 23.67278263 49.48217773 20.73852539 C49.5203839 18.74241507 49.55943716 16.74632076 49.59936523 14.75024414 C49.69669831 9.87142393 49.77649409 4.99276271 49.85717773 0.11352539 C61.07717773 0.11352539 72.29717773 0.11352539 83.85717773 0.11352539 C83.85717773 27.17352539 83.85717773 54.23352539 83.85717773 82.11352539 C72.63717773 82.11352539 61.41717773 82.11352539 49.85717773 82.11352539 C49.36217773 78.15352539 49.36217773 78.15352539 48.85717773 74.11352539 C48.13530273 74.87665039 47.41342773 75.63977539 46.66967773 76.42602539 C39.69574095 83.09000943 33.12793958 83.36187452 23.82592773 83.26977539 C16.96237651 82.90853585 9.95008244 81.30598711 5.03686523 76.23461914 C-4.09907432 65.2447337 -4.30228998 53.08106358 -4.27563477 39.33227539 C-4.27659149 38.23757935 -4.27754822 37.1428833 -4.27853394 36.01501465 C-4.27921059 33.71907493 -4.27739245 31.42313324 -4.27319336 29.12719727 C-4.26779632 25.59655546 -4.27317686 22.06603849 -4.27954102 18.53540039 C-4.27888095 16.30102511 -4.27760128 14.0666499 -4.27563477 11.83227539 C-4.277659 10.7719812 -4.27968323 9.71168701 -4.2817688 8.6192627 C-4.27861664 7.64734985 -4.27546448 6.67543701 -4.2722168 5.67407227 C-4.2714212 4.81519409 -4.27062561 3.95631592 -4.26980591 3.07141113 C-4.05498293 -0.24081743 -3.39625995 0.1226801 0 0 Z " fill="#0B0B0B" transform="translate(215.142822265625,183.886474609375)"/>
<path d="M0 0 C11.22 0 22.44 0 34 0 C34 7.26 34 14.52 34 22 C38.89153471 21.9604321 38.89153471 21.9604321 43.78295898 21.90991211 C45.52221717 21.90275087 47.26145304 21.94975298 49 22 C50 23 50 23 50.11352539 25.40844727 C50.10828857 26.45057373 50.10305176 27.4927002 50.09765625 28.56640625 C50.09443359 29.69111328 50.09121094 30.81582031 50.08789062 31.97460938 C50.07532227 33.75061523 50.07532227 33.75061523 50.0625 35.5625 C50.05798828 36.75037109 50.05347656 37.93824219 50.04882812 39.16210938 C50.03699686 42.10809412 50.01906076 45.05405316 50 48 C44.72 48 39.44 48 34 48 C33.93809838 59.99465123 33.93809838 59.99465123 39.25 70 C43.57797067 71.57380752 46.75640004 70.41453332 51 69 C51.33 66.69 51.66 64.38 52 62 C60.72376099 63.92685012 69.13677767 67.83711759 77 72 C77.6604455 78.34027681 76.83433254 82.24850119 73.2890625 87.56640625 C72.86367188 88.03949219 72.43828125 88.51257813 72 89 C71.34 89 70.68 89 70 89 C70 89.66 70 90.32 70 91 C60.90063433 98.23282912 49.88495816 99.17850642 38.625 99.1875 C37.42617188 99.20586914 37.42617188 99.20586914 36.203125 99.22460938 C27.62993236 99.2454181 17.95050115 97.99233964 11.0625 92.4375 C10 91 10 91 10 89 C9.401875 88.773125 8.80375 88.54625 8.1875 88.3125 C3.96863356 85.78118014 2.54778082 81.29801023 1.33081055 76.71777344 C-0.47388213 68.99626427 -0.3776205 61.38581775 -0.29296875 53.515625 C-0.28735893 51.96336278 -0.28309541 50.41109516 -0.28010559 48.85882568 C-0.26876565 44.81462393 -0.23939501 40.77075623 -0.20599365 36.72668457 C-0.16959632 31.85232443 -0.15607981 26.97785129 -0.13863373 22.10339355 C-0.10974861 14.73536487 -0.05218725 7.36806609 0 0 Z " fill="#0A0A0A" transform="translate(310,168)"/>
<path d="M0 0 C7.60269897 1.52053979 11.90747886 7.02779645 16.18359375 13.1015625 C20.09683356 19.23350158 23.07380957 25.00624817 25 32 C25.53717283 33.5224264 26.07889936 35.04325318 26.625 36.5625 C32.01402717 53.03994433 29.6113398 73.26257765 23 89 C20.11233236 94.53799274 17.0657798 100.22467968 13 105 C12.34 105 11.68 105 11 105 C10.505 106.485 10.505 106.485 10 108 C9.34 108 8.68 108 8 108 C7.01 109.98 7.01 109.98 6 112 C5.34 112 4.68 112 4 112 C4 112.66 4 113.32 4 114 C2.04165779 115.46875666 0.0817997 116.71919752 -2 118 C-2.76957031 118.52980469 -3.53914063 119.05960937 -4.33203125 119.60546875 C-21.58981712 130.78969908 -45.35445349 134.99135901 -65.4921875 131.0234375 C-76.24834026 128.63045321 -86.93423213 125.818377 -96.375 119.9375 C-97.16648437 119.45152344 -97.95796875 118.96554688 -98.7734375 118.46484375 C-99.50820312 117.98144531 -100.24296875 117.49804688 -101 117 C-101.75539063 116.50628906 -102.51078125 116.01257813 -103.2890625 115.50390625 C-103.85367188 115.00761719 -104.41828125 114.51132813 -105 114 C-105 113.01 -105 112.02 -105 111 C-100.04721962 111.54474323 -96.04625311 112.72214466 -91.4375 114.5625 C-74.17634512 120.5568708 -52.15660497 118.77231569 -35 113 C-34.0821875 112.71125 -33.164375 112.4225 -32.21875 112.125 C-20.44594351 107.95235972 -7.80212869 100.22393536 -1.3828125 89.23046875 C-0.92648438 88.49441406 -0.47015625 87.75835937 0 87 C0.66 87 1.32 87 2 87 C2.41958984 85.92105469 2.41958984 85.92105469 2.84765625 84.8203125 C4.31025865 81.24065509 5.99705831 77.78349728 7.68359375 74.3046875 C11.50740267 64.70545206 12.47236234 55.99168143 12.375 45.6875 C12.38660156 44.47126953 12.39820313 43.25503906 12.41015625 42.00195312 C12.36850352 28.92993822 10.45584237 17.8536872 3 7 C0 2.28472222 0 2.28472222 0 0 Z " fill="#0A0A0C" transform="translate(172,137)"/>
<path d="M0 0 C3.41776427 2.03218416 6.75970101 4.29987038 9.3125 7.375 C9.3125 8.695 9.3125 10.015 9.3125 11.375 C7.0025 11.375 4.6925 11.375 2.3125 11.375 C2.3125 12.035 2.3125 12.695 2.3125 13.375 C1.19875 13.6225 0.085 13.87 -1.0625 14.125 C-4.69758919 14.94369345 -4.69758919 14.94369345 -5.79296875 17.21875 C-6.08816406 17.9303125 -6.38335937 18.641875 -6.6875 19.375 C-7.16509766 20.29539063 -7.16509766 20.29539063 -7.65234375 21.234375 C-10.0270483 25.85026657 -11.94153103 30.48628688 -13.6875 35.375 C-16.52922382 35.61181032 -18.2660352 35.59812842 -20.8125 34.25 C-25.0784766 29.9840234 -26.13504273 25.38832834 -26.1875 19.5 C-26.04705649 13.15997856 -25.00924467 9.0500208 -20.6875 4.375 C-14.65175569 -1.22961972 -7.88387425 -1.83345913 0 0 Z " fill="#05050A" transform="translate(114.6875,163.625)"/>
<path d="M0 0 C0 0.66 0 1.32 0 2 C-2 3.625 -2 3.625 -4 5 C-3.34414811 8.60992379 -3.34414811 8.60992379 -2 12 C-2.03189795 14.00957058 -2.06634162 16.01971076 -2.16015625 18.02734375 C-2.13434422 20.32449615 -2.13434422 20.32449615 0 23 C0.33 20.36 0.66 17.72 1 15 C1.33 15 1.66 15 2 15 C2.76024783 27.90309513 -0.40039836 38.47316045 -6 50 C-6.2165625 49.1028125 -6.2165625 49.1028125 -6.4375 48.1875 C-6.8872439 46.43849596 -7.42892341 44.71322977 -8 43 C-8.99 43.66 -9.98 44.32 -11 45 C-13.1875 44.625 -13.1875 44.625 -15 44 C-12.525 43.505 -12.525 43.505 -10 43 C-7.1749445 32.26478911 -5.32362402 22.11648525 -5 11 C-6.32 11.33 -7.64 11.66 -9 12 C-9.33 14.64 -9.66 17.28 -10 20 C-12 17 -12 17 -11.875 13.5 C-11 10 -11 10 -8.9375 8.0625 C-8.298125 7.711875 -7.65875 7.36125 -7 7 C-7.99 6.34 -8.98 5.68 -10 5 C-10.6875 2.875 -10.6875 2.875 -11 1 C-9.35 1 -7.7 1 -6 1 C-6.66 0.34 -7.32 -0.32 -8 -1 C-4.59745511 -2.2151946 -3.06748874 -1.86240388 0 0 Z " fill="#615AE0" transform="translate(183,169)"/>
<path d="M0 0 C-0.66 1.98 -1.32 3.96 -2 6 C-0.68 6.66 0.64 7.32 2 8 C1.67 8.66 1.34 9.32 1 10 C0.01 10.33 -0.98 10.66 -2 11 C-2.78934155 15.34137853 -2.98072221 19.27311731 -2.8125 23.6875 C-2.73252645 29.46740651 -4.0498609 34.04547398 -6.125 39.40625 C-7.21310035 42.17546293 -7.21310035 42.17546293 -7 46 C-4.36 45.01 -1.72 44.02 1 43 C2.03103689 47.12414757 1.94701684 47.9841142 0.5625 51.75 C0.27503906 52.54921875 -0.01242188 53.3484375 -0.30859375 54.171875 C-0.53675781 54.77515625 -0.76492187 55.3784375 -1 56 C-1.66 56 -2.32 56 -3 56 C-3.33644531 57.06541016 -3.33644531 57.06541016 -3.6796875 58.15234375 C-7.43427696 66.25026008 -15.85727378 72.77363678 -24 76 C-24 75.34 -24 74.68 -24 74 C-23.34 74 -22.68 74 -22 74 C-22 73.34 -22 72.68 -22 72 C-21.01 72 -20.02 72 -19 72 C-18.896875 71.38125 -18.79375 70.7625 -18.6875 70.125 C-18 68 -18 68 -15 66 C-12.8125 65.375 -12.8125 65.375 -11 65 C-11 64.01 -11 63.02 -11 62 C-10.01 62 -9.02 62 -8 62 C-8 61.34 -8 60.68 -8 60 C-7.34 60 -6.68 60 -6 60 C-6 59.01 -6 58.02 -6 57 C-5.34 57 -4.68 57 -4 57 C-4.185625 55.865625 -4.37125 54.73125 -4.5625 53.5625 C-4.706875 52.386875 -4.85125 51.21125 -5 50 C-4.67 49.67 -4.34 49.34 -4 49 C-5.2065625 48.4740625 -5.2065625 48.4740625 -6.4375 47.9375 C-9 46 -9 46 -9.8125 42.3125 C-9.874375 41.219375 -9.93625 40.12625 -10 39 C-8.515 38.505 -8.515 38.505 -7 38 C-7.09539062 37.32453125 -7.19078125 36.6490625 -7.2890625 35.953125 C-7.45535156 34.61507812 -7.45535156 34.61507812 -7.625 33.25 C-7.74101562 32.36828125 -7.85703125 31.4865625 -7.9765625 30.578125 C-8.00259403 27.71465655 -7.33413592 26.47696178 -6 24 C-5.72415632 22.00424339 -5.72415632 22.00424339 -5.8125 20 C-5.82667969 19.30519531 -5.84085938 18.61039063 -5.85546875 17.89453125 C-5.94774686 15.90761583 -5.94774686 15.90761583 -6.625 13.6875 C-6.74875 13.130625 -6.8725 12.57375 -7 12 C-6.34 11.01 -5.68 10.02 -5 9 C-4.97250522 6.93089407 -4.97250522 6.93089407 -5.375 4.8125 C-5.58125 3.554375 -5.7875 2.29625 -6 1 C-4 0 -4 0 0 0 Z " fill="#6059E9" transform="translate(175,168)"/>
<path d="M0 0 C0.495 1.485 0.495 1.485 1 3 C0.4225 3.0825 -0.155 3.165 -0.75 3.25 C-3.16132427 3.8493544 -3.16132427 3.8493544 -4.8125 6 C-7 8 -7 8 -10.125 8.1875 C-16.21397839 9.46422128 -19.68097107 13.71035222 -24 18 C-24.94875 18.9075 -25.8975 19.815 -26.875 20.75 C-29.04415459 22.98515039 -29.04415459 22.98515039 -31 25.5 C-33 28 -33 28 -35.4375 30.1875 C-38.92470295 34.01491787 -40.8637291 38.31838505 -43 43 C-43.66 42.67 -44.32 42.34 -45 42 C-43.82701739 38.02990501 -42.51692311 35.25102569 -40 32 C-39.7628125 31.27683594 -39.525625 30.55367187 -39.28125 29.80859375 C-37.51066597 25.92734399 -34.90971267 23.20787524 -32 20.125 C-31.41549072 19.50367188 -30.83098145 18.88234375 -30.22875977 18.2421875 C-22.99783918 10.71989667 -10.95750039 0 0 0 Z " fill="#837DE9" transform="translate(78,112)"/>
<path d="M0 0 C5.39392739 0.61665136 10.28395283 1.87922796 15.4375 3.5625 C16.16904297 3.79646484 16.90058594 4.03042969 17.65429688 4.27148438 C19.43780179 4.84267222 21.21913583 5.42063123 23 6 C22.49396008 8.16874252 22.00016187 9.99967627 21 12 C23.475 12.495 23.475 12.495 26 13 C26 13.66 26 14.32 26 15 C27.32 15.66 28.64 16.32 30 17 C19.64667789 16.2284784 7.6579401 10.04923204 0 3 C0 2.01 0 1.02 0 0 Z " fill="#292936" transform="translate(67,248)"/>
<path d="M0 0 C8.35130775 9.30031999 7.53887618 23.18321509 7 35 C6.83432985 37.78089188 6.55829841 40.2643378 6 43 C5.01 43.495 5.01 43.495 4 44 C1.98419502 39.84240224 2 36.56615726 2 32 C1.34 31.01 0.68 30.02 0 29 C0.125 26.4375 0.125 26.4375 1 24 C3.0546875 22.84765625 3.0546875 22.84765625 5 22 C3.13585111 14.18482556 3.13585111 14.18482556 0.8125 6.5 C0 4 0 4 0 0 Z " fill="#635DF3" transform="translate(178,149)"/>
<path d="M0 0 C0 0.66 0 1.32 0 2 C-2 3.625 -2 3.625 -4 5 C-3.34414811 8.60992379 -3.34414811 8.60992379 -2 12 C-2.08910158 14.55807762 -2.23294246 17.0762601 -2.4375 19.625 C-2.48970703 20.33140625 -2.54191406 21.0378125 -2.59570312 21.765625 C-2.72541207 23.51079987 -2.86204954 25.25545725 -3 27 C-3.66 27 -4.32 27 -5 27 C-5.33 27.99 -5.66 28.98 -6 30 C-5.67 23.73 -5.34 17.46 -5 11 C-6.32 11.33 -7.64 11.66 -9 12 C-9.33 14.64 -9.66 17.28 -10 20 C-12 17 -12 17 -11.875 13.5 C-11 10 -11 10 -8.9375 8.0625 C-8.298125 7.711875 -7.65875 7.36125 -7 7 C-7.99 6.34 -8.98 5.68 -10 5 C-10.6875 2.875 -10.6875 2.875 -11 1 C-9.35 1 -7.7 1 -6 1 C-6.66 0.34 -7.32 -0.32 -8 -1 C-4.59745511 -2.2151946 -3.06748874 -1.86240388 0 0 Z " fill="#7B80DD" transform="translate(183,169)"/>
<path d="M0 0 C2.9719385 1.12451727 5.33440687 2.22293791 8 4 C10.27687337 11.71607087 13.25398107 22.69543575 9.375 30.1875 C6.87093734 33.15283736 5.6871943 34.03430626 2 35 C1.0925 35.37125 0.185 35.7425 -0.75 36.125 C-4.89966953 37.24221872 -8.73149342 37.17074026 -13 37 C-12.67 36.01 -12.34 35.02 -12 34 C-12 34.66 -12 35.32 -12 36 C-5.91493206 35.10200939 -1.6241676 34.33515712 3 30 C3.66 30 4.32 30 5 30 C5.144375 29.4225 5.28875 28.845 5.4375 28.25 C5.77518982 26.89924071 6.13331473 25.55300357 6.53125 24.21875 C7.10227755 21.51588629 7.09536157 19.01037148 7.0625 16.25 C7.05347656 15.26515625 7.04445313 14.2803125 7.03515625 13.265625 C7.02355469 12.51796875 7.01195313 11.7703125 7 11 C4.69 11 2.38 11 0 11 C0 10.67 0 10.34 0 10 C2.31 10 4.62 10 7 10 C5.6062718 5.56541027 3.39417765 3.12621626 0 0 Z " fill="#8D88E6" transform="translate(117,165)"/>
<path d="M0 0 C-10.02766766 5.42614764 -18.69842091 5.62091075 -29.75 5.3125 C-31.33329764 5.28735542 -32.91663428 5.26455324 -34.5 5.24414062 C-38.33431745 5.18970063 -42.16671387 5.10378357 -46 5 C-46.33 4.34 -46.66 3.68 -47 3 C-45.68563965 2.97812622 -45.68563965 2.97812622 -44.34472656 2.95581055 C-41.03426559 2.89406124 -37.72454279 2.81979165 -34.41455078 2.73754883 C-32.9931056 2.70468212 -31.57154186 2.67653677 -30.14990234 2.65356445 C-21.94473927 2.5174873 -14.35924199 1.97441455 -6.44433594 -0.46557617 C-3.866225 -1.02924825 -2.46208235 -0.86417222 0 0 Z " fill="#0F0D3C" transform="translate(136,252)"/>
<path d="M0 0 C-0.66 1.98 -1.32 3.96 -2 6 C-0.68 6.66 0.64 7.32 2 8 C1.67 8.66 1.34 9.32 1 10 C0.01 10.33 -0.98 10.66 -2 11 C-2.79265639 16.32212148 -3.42978066 21.6496441 -4 27 C-6.24253534 23.63619698 -6.11871068 21.8678549 -5.99609375 17.9296875 C-5.91689587 15.91123124 -5.91689587 15.91123124 -6.625 13.6875 C-6.74875 13.130625 -6.8725 12.57375 -7 12 C-6.34 11.01 -5.68 10.02 -5 9 C-4.97250522 6.93089407 -4.97250522 6.93089407 -5.375 4.8125 C-5.58125 3.554375 -5.7875 2.29625 -6 1 C-4 0 -4 0 0 0 Z " fill="#5E5AE9" transform="translate(175,168)"/>
<path d="M0 0 C0.33 0 0.66 0 1 0 C1.04951788 4.4840341 1.08577526 8.96792239 1.10986328 13.45214844 C1.11990744 14.97691623 1.13354531 16.50166484 1.15087891 18.02636719 C1.17519738 20.22075138 1.18649889 22.41488042 1.1953125 24.609375 C1.20578613 25.92905273 1.21625977 27.24873047 1.22705078 28.60839844 C1.01434947 31.7856528 0.61525762 33.34094216 -1 36 C-1.33093379 37.4918285 -1.6221093 38.99297786 -1.875 40.5 C-2.6765832 44.42387904 -3.7323097 46.49477077 -7 49 C-7.33 48.34 -7.66 47.68 -8 47 C-7.11008657 44.51001044 -6.16568638 42.11345559 -5.125 39.6875 C-2.35864687 33.17583315 -0.91876683 27.69425719 -0.68359375 20.60546875 C-0.64169922 19.40341797 -0.59980469 18.20136719 -0.55664062 16.96289062 C-0.51732422 15.71701172 -0.47800781 14.47113281 -0.4375 13.1875 C-0.39431641 11.92228516 -0.35113281 10.65707031 -0.30664062 9.35351562 C-0.2007553 6.23578111 -0.09867595 3.11796965 0 0 Z " fill="#231F68" transform="translate(185,170)"/>
<path d="M0 0 C6.29337398 1.2586748 10.0097836 5.23690385 14 10 C15.234375 12.2578125 15.234375 12.2578125 16 14 C15.01 14 14.02 14 13 14 C13 13.01 13 12.02 13 11 C10.53155755 10.2861014 10.53155755 10.2861014 8 10 C8.33 10.99 8.66 11.98 9 13 C8.01 13.495 8.01 13.495 7 14 C5.82807953 12.04480616 4.6626071 10.0857461 3.5 8.125 C2.8503125 7.03445312 2.200625 5.94390625 1.53125 4.8203125 C0 2 0 2 0 0 Z " fill="#0A0A2D" transform="translate(172,137)"/>
<path d="M0 0 C0.99 0.33 1.98 0.66 3 1 C3.9140625 3.46875 3.9140625 3.46875 4.625 6.5 C5.23137716 10.04912374 5.23137716 10.04912374 7 13 C7.08775605 15.14558827 7.10695219 17.29404421 7.09765625 19.44140625 C7.09443359 20.74658203 7.09121094 22.05175781 7.08789062 23.39648438 C7.07953401 24.7851569 7.07106905 26.17382877 7.0625 27.5625 C7.05748666 28.95507656 7.05292347 30.34765481 7.04882812 31.74023438 C7.03699434 35.1601987 7.0205088 38.58007844 7 42 C6.67 42 6.34 42 6 42 C5.98541748 41.35039307 5.97083496 40.70078613 5.95581055 40.03149414 C5.88058338 37.0412806 5.78417388 34.05209403 5.6875 31.0625 C5.66494141 30.04091797 5.64238281 29.01933594 5.61914062 27.96679688 C5.41692357 22.21280261 4.78555556 17.30465628 2.69311523 11.9230957 C1.64677927 9.01996487 1.36616258 6.05135485 1 3 C0.67 2.01 0.34 1.02 0 0 Z " fill="#040225" transform="translate(180,151)"/>
<path d="M0 0 C0.33 0 0.66 0 1 0 C1.49272781 6.40546152 0.14989035 11.24116363 -2.02734375 17.265625 C-2.82442266 19.50640908 -3.47610192 21.683819 -4 24 C-6 22 -6 22 -6.125 19.375 C-6.08375 18.59125 -6.0425 17.8075 -6 17 C-5.01 16.67 -4.02 16.34 -3 16 C-3.33 12.7 -3.66 9.4 -4 6 C-3.01 5.34 -2.02 4.68 -1 4 C-0.27617533 1.94074861 -0.27617533 1.94074861 0 0 Z " fill="#7670E1" transform="translate(171,190)"/>
<path d="M0 0 C0.33 0 0.66 0 1 0 C1.33 7.59 1.66 15.18 2 23 C2.33 23 2.66 23 3 23 C3.33 24.65 3.66 26.3 4 28 C4.33 28 4.66 28 5 28 C5 31.96 5 35.92 5 40 C4.67 40 4.34 40 4 40 C-0.81068753 26.79208557 -0.4289518 13.8996881 0 0 Z " fill="#9E9BEF" transform="translate(28,170)"/>
<path d="M0 0 C0.66 1.32 1.32 2.64 2 4 C1.13375 4.928125 0.2675 5.85625 -0.625 6.8125 C-4.5911763 11.40193258 -7.25691914 16.62083788 -10 22 C-10.66 21.67 -11.32 21.34 -12 21 C-10.82701739 17.02990501 -9.51692311 14.25102569 -7 11 C-6.71125 10.21625 -6.4225 9.4325 -6.125 8.625 C-4.63029943 5.13736534 -2.50939637 2.8395801 0 0 Z " fill="#837EDE" transform="translate(45,133)"/>
<path d="M0 0 C0.66 0 1.32 0 2 0 C-0.30623592 7.08343889 -6.21893323 12.61865506 -12.4375 16.53515625 C-14.25273731 17.43953341 -16.1218389 18.23482326 -18 19 C-18 18.34 -18 17.68 -18 17 C-17.34 17 -16.68 17 -16 17 C-16 16.34 -16 15.68 -16 15 C-15.01 15 -14.02 15 -13 15 C-12.8453125 14.071875 -12.8453125 14.071875 -12.6875 13.125 C-12 11 -12 11 -9 9 C-6.8125 8.375 -6.8125 8.375 -5 8 C-5 7.01 -5 6.02 -5 5 C-4.01 5 -3.02 5 -2 5 C-2 4.34 -2 3.68 -2 3 C-1.34 3 -0.68 3 0 3 C0 2.01 0 1.02 0 0 Z " fill="#5F57D7" transform="translate(169,225)"/>
<path d="M0 0 C1.9375 1.125 1.9375 1.125 2.9375 3.125 C-2.8125 2.25 -2.8125 2.25 -5.0625 1.125 C-8.5625 0.79166667 -8.5625 0.79166667 -12.0625 1.125 C-13.0525 2.61 -13.0525 2.61 -14.0625 4.125 C-19.7347408 8.125 -19.7347408 8.125 -23.0625 8.125 C-21.56771886 4.32010255 -19.36807786 2.46309165 -16.0625 0.125 C-10.86141689 -1.60869437 -5.25857133 -1.50244895 0 0 Z " fill="#09082E" transform="translate(115.0625,163.875)"/>
<path d="M0 0 C2.40501922 3.60752884 3.24602334 5.45356758 2.5625 9.75 C2.376875 10.4925 2.19125 11.235 2 12 C2.66 12.33 3.32 12.66 4 13 C3.01 15.31 2.02 17.62 1 20 C0.855625 19.401875 0.71125 18.80375 0.5625 18.1875 C0.1127561 16.43849596 -0.42892341 14.71322977 -1 13 C-1.99 13.66 -2.98 14.32 -4 15 C-6.1875 14.625 -6.1875 14.625 -8 14 C-6.35 13.67 -4.7 13.34 -3 13 C-2.01 8.71 -1.02 4.42 0 0 Z " fill="#716CDB" transform="translate(176,199)"/>
<path d="M0 0 C5.86773733 6.43753827 7.1722034 15.32419783 7.1875 23.875 C7.125625 24.90625 7.06375 25.9375 7 27 C6.67 27 6.34 27 6 27 C5.83564453 25.948125 5.83564453 25.948125 5.66796875 24.875 C4.7878286 19.60847032 3.68705284 14.86065161 1.6640625 9.92578125 C0.54156948 6.6705515 0.3052912 3.41926147 0 0 Z " fill="#5750C1" transform="translate(178,149)"/>
<path d="M0 0 C-1 2 -1 2 -2.96191406 2.77783203 C-3.80463867 3.01872559 -4.64736328 3.25961914 -5.515625 3.5078125 C-6.43730469 3.77207031 -7.35898438 4.03632813 -8.30859375 4.30859375 C-9.27925781 4.57800781 -10.24992187 4.84742188 -11.25 5.125 C-12.20519531 5.40214844 -13.16039062 5.67929688 -14.14453125 5.96484375 C-18.57331664 7.21525186 -22.36776427 8.16462349 -27 8 C-25 6 -25 6 -21.375 5.875 C-19.704375 5.936875 -19.704375 5.936875 -18 6 C-18 5.34 -18 4.68 -18 4 C-17.39671875 3.87882813 -16.7934375 3.75765625 -16.171875 3.6328125 C-15.37265625 3.46523437 -14.5734375 3.29765625 -13.75 3.125 C-12.96109375 2.96257812 -12.1721875 2.80015625 -11.359375 2.6328125 C-8.98169307 2.07949455 -8.98169307 2.07949455 -6.875 0.9375 C-4.49181915 -0.25409043 -2.62772904 -0.14598495 0 0 Z " fill="#5C54CF" transform="translate(147,246)"/>
<path d="M0 0 C0.33 1.32 0.66 2.64 1 4 C0.01 4.33 -0.98 4.66 -2 5 C-2 5.99 -2 6.98 -2 8 C-3.32 8 -4.64 8 -6 8 C-6.268125 8.639375 -6.53625 9.27875 -6.8125 9.9375 C-8 12 -8 12 -11 13 C-11.66 12.34 -12.32 11.68 -13 11 C-12.48050781 10.62488281 -11.96101562 10.24976563 -11.42578125 9.86328125 C-7.27747551 6.81914561 -3.52678314 3.74720709 0 0 Z " fill="#0D0B37" transform="translate(167,231)"/>
<path d="M0 0 C1.125 3.75 1.125 3.75 0 6 C-0.2275015 7.87056791 -0.40962811 9.74685958 -0.5625 11.625 C-0.64628906 12.62789062 -0.73007813 13.63078125 -0.81640625 14.6640625 C-0.87699219 15.43492187 -0.93757813 16.20578125 -1 17 C-0.34 17 0.32 17 1 17 C1.66 19.31 2.32 21.62 3 24 C3.66 24 4.32 24 5 24 C4.67 24.66 4.34 25.32 4 26 C0.40860238 23.60573492 -0.405274 21.97512346 -2 18 C-2.36328125 14.4921875 -2.36328125 14.4921875 -2.3125 10.875 C-2.30863281 9.67617187 -2.30476563 8.47734375 -2.30078125 7.2421875 C-2.02185989 4.23563262 -1.57769546 2.52682699 0 0 Z " fill="#171250" transform="translate(91,172)"/>
<path d="M0 0 C0.33 0 0.66 0 1 0 C1.22424141 7.36259293 0.90120099 13.87049629 -1 21 C-4.31027791 15.34706388 -2.43686411 9.51046397 -0.9375 3.4375 C-0.628125 2.303125 -0.31875 1.16875 0 0 Z " fill="#7D77E4" transform="translate(32,154)"/>
<path d="M0 0 C0.66 0.66 1.32 1.32 2 2 C1.278125 2.556875 0.55625 3.11375 -0.1875 3.6875 C-2.97457299 5.97909334 -5.48641528 8.41459857 -8 11 C-8.3125 8.8125 -8.3125 8.8125 -8 6 C-5.43879574 2.95424358 -3.79480342 1.26493447 0 0 Z " fill="#766FE6" transform="translate(54,126)"/>
<path d="M0 0 C5.40214088 0.10943563 10.43422788 1.7287689 15.5625 3.3125 C15.5625 3.6425 15.5625 3.9725 15.5625 4.3125 C14.10426788 4.3395043 12.64589325 4.35889787 11.1875 4.375 C10.37539062 4.38660156 9.56328125 4.39820312 8.7265625 4.41015625 C6.5625 4.3125 6.5625 4.3125 4.5625 3.3125 C2.85886178 3.08627919 1.14921299 2.90361527 -0.5625 2.75 C-1.47257812 2.66621094 -2.38265625 2.58242187 -3.3203125 2.49609375 C-4.01898438 2.43550781 -4.71765625 2.37492187 -5.4375 2.3125 C-3.4375 0.3125 -3.4375 0.3125 0 0 Z " fill="#8D88E5" transform="translate(121.4375,107.6875)"/>
<path d="M0 0 C2.475 0.495 2.475 0.495 5 1 C5.55808089 2.43120744 6.09596462 3.87030355 6.625 5.3125 C6.92664062 6.11300781 7.22828125 6.91351563 7.5390625 7.73828125 C7.76722656 8.85783203 7.76722656 8.85783203 8 10 C7.01 11.485 7.01 11.485 6 13 C4.99491199 11.21118264 3.99607264 9.41885304 3 7.625 C2.1646875 6.12839844 2.1646875 6.12839844 1.3125 4.6015625 C0 2 0 2 0 0 Z " fill="#8C85E9" transform="translate(33,211)"/>
<path d="M0 0 C2.9719385 1.12451727 5.33440687 2.22293791 8 4 C8.51171875 6.3828125 8.51171875 6.3828125 8.6875 9.125 C8.78611328 10.49011719 8.78611328 10.49011719 8.88671875 11.8828125 C8.92410156 12.58148438 8.96148437 13.28015625 9 14 C8.34 14 7.68 14 7 14 C7 13.01 7 12.02 7 11 C4.69 11 2.38 11 0 11 C0 10.67 0 10.34 0 10 C2.31 10 4.62 10 7 10 C5.6062718 5.56541027 3.39417765 3.12621626 0 0 Z " fill="#7874C8" transform="translate(117,165)"/>
<path d="M0 0 C1.48285242 0.95262034 2.96118201 1.91228405 4.4375 2.875 C5.67306641 3.67550781 5.67306641 3.67550781 6.93359375 4.4921875 C9 6 9 6 10 8 C7.69 8.33 5.38 8.66 3 9 C2.87625 8.360625 2.7525 7.72125 2.625 7.0625 C2.315625 6.0415625 2.315625 6.0415625 2 5 C1.34 4.67 0.68 4.34 0 4 C0 2.68 0 1.36 0 0 Z " fill="#7D77F0" transform="translate(153,119)"/>
<path d="M0 0 C4.77576339 0.4682121 8.04476345 1.24331998 12 4 C11.67 4.66 11.34 5.32 11 6 C9.68 6 8.36 6 7 6 C7 5.34 7 4.68 7 4 C4.69 3.34 2.38 2.68 0 2 C0 1.34 0 0.68 0 0 Z " fill="#06061E" transform="translate(67,248)"/>
<path d="M0 0 C4.13937592 3.30015998 7.58662205 6.17324411 10 11 C9.01 11 8.02 11 7 11 C7 10.01 7 9.02 7 8 C6.360625 7.87625 5.72125 7.7525 5.0625 7.625 C4.381875 7.41875 3.70125 7.2125 3 7 C2.67 6.34 2.34 5.68 2 5 C1.01 4.67 0.02 4.34 -1 4 C-0.67 2.68 -0.34 1.36 0 0 Z " fill="#4E4D4F" transform="translate(178,140)"/>
<path d="M0 0 C0.66 0 1.32 0 2 0 C1.50769231 6.4 1.50769231 6.4 -1.0625 9.4375 C-2.0215625 10.2109375 -2.0215625 10.2109375 -3 11 C-3.33 10.34 -3.66 9.68 -4 9 C-3.22265625 6.8359375 -3.22265625 6.8359375 -2.0625 4.375 C-1.68222656 3.55773437 -1.30195313 2.74046875 -0.91015625 1.8984375 C-0.60980469 1.27195313 -0.30945313 0.64546875 0 0 Z " fill="#131144" transform="translate(181,208)"/>
<path d="M0 0 C4.9723422 1.49170266 9.41845739 3.60457417 14 6 C13.34 6.66 12.68 7.32 12 8 C7.05 6.02 7.05 6.02 2 4 C2 3.34 2 2.68 2 2 C1.01 1.67 0.02 1.34 -1 1 C-0.67 0.67 -0.34 0.34 0 0 Z " fill="#8B87E3" transform="translate(138,112)"/>
<path d="M0 0 C4.7517398 0.43197635 6.92000054 1.32769295 10 5 C9.01 5 8.02 5 7 5 C6.67 5.66 6.34 6.32 6 7 C3.95880212 5.38405168 1.95927063 3.7143618 0 2 C0 1.34 0 0.68 0 0 Z " fill="#4C4987" transform="translate(60,243)"/>
<path d="M0 0 C0.99 0.33 1.98 0.66 3 1 C5.12310361 6.36363018 5.23332331 11.28357882 5 17 C3.33816687 14.00313774 2.54165857 11.30352629 1.9375 7.9375 C1.4336848 5.1685983 0.89262079 2.67786236 0 0 Z " fill="#11103F" transform="translate(180,151)"/>
<path d="M0 0 C1.6396875 0.2475 1.6396875 0.2475 3.3125 0.5 C6.87525873 1.06718184 6.87525873 1.06718184 10 1 C10.33 2.32 10.66 3.64 11 5 C3.49230769 4.50769231 3.49230769 4.50769231 1 1.9375 C0.67 1.298125 0.34 0.65875 0 0 Z " fill="#6963DD" transform="translate(56,240)"/>
<path d="M0 0 C2.475 0.495 2.475 0.495 5 1 C5.33 2.32 5.66 3.64 6 5 C7.32 5 8.64 5 10 5 C10 6.32 10 7.64 10 9 C6.55729549 7.46990911 3.81074178 5.5068778 1 3 C0.67 2.01 0.34 1.02 0 0 Z " fill="#908CE1" transform="translate(46,231)"/>
<path d="M0 0 C0.33 0 0.66 0 1 0 C1 3.63 1 7.26 1 11 C-4 10 -4 10 -6 8 C-5.38125 7.79375 -4.7625 7.5875 -4.125 7.375 C-1.15346355 5.45224112 -0.86975341 3.33405473 0 0 Z " fill="#444465" transform="translate(103,191)"/>
<path d="M0 0 C3.0625 0.875 3.0625 0.875 5 2 C5.33 2.66 5.66 3.32 6 4 C0.25 3.125 0.25 3.125 -2 2 C-3.87379605 1.92966231 -5.75001102 1.9156978 -7.625 1.9375 C-9.12933594 1.95103516 -9.12933594 1.95103516 -10.6640625 1.96484375 C-11.82035156 1.98224609 -11.82035156 1.98224609 -13 2 C-8.74144495 -0.8390367 -4.99553181 -0.39836777 0 0 Z " fill="#161451" transform="translate(112,163)"/>
<path d="M0 0 C0.66 0.33 1.32 0.66 2 1 C-1.63 4.63 -5.26 8.26 -9 12 C-9.33 11.34 -9.66 10.68 -10 10 C-7.02911382 6.00073014 -3.87051275 3.07881696 0 0 Z " fill="#646464" transform="translate(590,185)"/>
<path d="M0 0 C-0.66 1.98 -1.32 3.96 -2 6 C-1.34 6.33 -0.68 6.66 0 7 C-1.65 6.67 -3.3 6.34 -5 6 C-5.33 4.35 -5.66 2.7 -6 1 C-4 0 -4 0 0 0 Z " fill="#4B4BD6" transform="translate(175,168)"/>
<path d="M0 0 C0 0.66 0 1.32 0 2 C-1.96147874 3.38938077 -3.96166576 4.7260411 -6 6 C-5.95875 5.21625 -5.9175 4.4325 -5.875 3.625 C-5.71271266 0.83883881 -5.71271266 0.83883881 -8 -1 C-4.59745511 -2.2151946 -3.06748874 -1.86240388 0 0 Z " fill="#7876EF" transform="translate(183,169)"/>
<path d="M0 0 C2.62962963 3.94444444 2.62962963 3.94444444 3 7 C2.0625 9.25 2.0625 9.25 1 11 C0.01 11 -0.98 11 -2 11 C-1.34 7.37 -0.68 3.74 0 0 Z " fill="#8480E3" transform="translate(176,199)"/>
<path d="M0 0 C0 1.32 0 2.64 0 4 C-2.31 4 -4.62 4 -7 4 C-6.67 3.01 -6.34 2.02 -6 1 C-4 0 -4 0 0 0 Z " fill="#5E5DE1" transform="translate(178,164)"/>
<path d="M0 0 C0.66 1.32 1.32 2.64 2 4 C0 7 0 7 -2 7.625 C-2.66 7.74875 -3.32 7.8725 -4 8 C-4.99 8.495 -4.99 8.495 -6 9 C-4.47291037 5.56404834 -2.40072955 2.88087546 0 0 Z " fill="#9C97F0" transform="translate(45,133)"/>
<path d="M0 0 C2.475 0.99 2.475 0.99 5 2 C5 2.99 5 3.98 5 5 C4.67 4.34 4.34 3.68 4 3 C3.34 3 2.68 3 2 3 C2.66 4.32 3.32 5.64 4 7 C2.68 6.67 1.36 6.34 0 6 C-0.38218767 4.34385343 -0.71395102 2.67542976 -1 1 C-0.67 0.67 -0.34 0.34 0 0 Z " fill="#514E8E" transform="translate(170,134)"/>
<path d="M0 0 C2.64 1.98 5.28 3.96 8 6 C7.67 6.66 7.34 7.32 7 8 C3.64379729 6.61122646 1.92701272 5.08322035 0 2 C0 1.34 0 0.68 0 0 Z " fill="#777AC4" transform="translate(163,127)"/>
<path d="M0 0 C6.75 -0.125 6.75 -0.125 9 1 C9 1.66 9 2.32 9 3 C9.99 3.33 10.98 3.66 12 4 C7.6822542 3.49202991 3.96697886 2.80317221 0 1 C0 0.67 0 0.34 0 0 Z " fill="#544DBF" transform="translate(72,248)"/>
<path d="M0 0 C1.32 0 2.64 0 4 0 C5.4783226 2.95664519 5.06032783 5.74229737 5 9 C4.34 9 3.68 9 3 9 C2.8046875 6.94921875 2.609375 4.8984375 2.4140625 2.84765625 C2.27742187 2.23792969 2.14078125 1.62820312 2 1 C1.34 0.67 0.68 0.34 0 0 Z " fill="#8183E3" transform="translate(176,179)"/>
<path d="M0 0 C0.99 0.33 1.98 0.66 3 1 C3 1.66 3 2.32 3 3 C4.32 3.33 5.64 3.66 7 4 C7 4.66 7 5.32 7 6 C5.35 6.33 3.7 6.66 2 7 C1.34 4.69 0.68 2.38 0 0 Z " fill="#03030C" transform="translate(178,144)"/>
<path d="M0 0 C2.2477975 2.05233685 3.0022242 3.00667261 4 6 C5.49985609 7.66710346 5.49985609 7.66710346 7 9 C5.02 8.34 3.04 7.68 1 7 C0.67 4.69 0.34 2.38 0 0 Z " fill="#5B53CB" transform="translate(89,190)"/>
<path d="M0 0 C1.32 0.66 2.64 1.32 4 2 C3.34 2 2.68 2 2 2 C1.67 4.64 1.34 7.28 1 10 C-1.56687367 6.1496895 -0.83288724 4.41430237 0 0 Z " fill="#8785DD" transform="translate(172,179)"/>
<path d="M0 0 C0.99 0.33 1.98 0.66 3 1 C3 1.66 3 2.32 3 3 C0.69 3.66 -1.62 4.32 -4 5 C-4.33 4.34 -4.66 3.68 -5 3 C-2.6875 1.4375 -2.6875 1.4375 0 0 Z " fill="#3A393D" transform="translate(114,174)"/>
<path d="M0 0 C-1.49739583 1.23697917 -2.99479167 2.47395833 -4.4921875 3.7109375 C-5.71051161 4.75250992 -6.86660097 5.86660097 -8 7 C-8 5.68 -8 4.36 -8 3 C-7.34 3 -6.68 3 -6 3 C-6 2.01 -6 1.02 -6 0 C-3 -1 -3 -1 0 0 Z " fill="#5851C9" transform="translate(99,165)"/>
<path d="M0 0 C1.32 0.66 2.64 1.32 4 2 C1.03 3.65 -1.94 5.3 -5 7 C-5 6.34 -5 5.68 -5 5 C-4.34 5 -3.68 5 -3 5 C-3 4.34 -3 3.68 -3 3 C-2.01 3 -1.02 3 0 3 C0 2.01 0 1.02 0 0 Z " fill="#5851CA" transform="translate(156,237)"/>
<path d="M0 0 C0.66 0 1.32 0 2 0 C1.8125 2.375 1.8125 2.375 1 5 C-1.5625 6.3125 -1.5625 6.3125 -4 7 C-2.68 4.69 -1.36 2.38 0 0 Z " fill="#14124B" transform="translate(172,224)"/>
<path d="M0 0 C0.66 0.33 1.32 0.66 2 1 C0.25 6.75 0.25 6.75 -2 9 C-2.25 3.375 -2.25 3.375 0 0 Z " fill="#4F4F4F" transform="translate(194,221)"/>
<path d="M0 0 C1.32 0.66 2.64 1.32 4 2 C2.1875 3.5625 2.1875 3.5625 0 5 C-0.99 4.67 -1.98 4.34 -3 4 C-2.01 2.68 -1.02 1.36 0 0 Z " fill="#404042" transform="translate(167,252)"/>
<path d="M0 0 C0.66 0 1.32 0 2 0 C2 2.31 2 4.62 2 7 C1.01 7.495 1.01 7.495 0 8 C-0.38063221 5.6739143 -0.71269945 3.33944736 -1 1 C-0.67 0.67 -0.34 0.34 0 0 Z " fill="#6C6BD5" transform="translate(166,206)"/>
<path d="M0 0 C1.89213369 2.38573379 3.02391783 4.07175348 4 7 C2.68 7.33 1.36 7.66 0 8 C0 5.36 0 2.72 0 0 Z " fill="#37373C" transform="translate(188,151)"/>
<path d="M0 0 C1.98 0.66 3.96 1.32 6 2 C5.01 2.495 5.01 2.495 4 3 C3.34786708 5.02463255 3.34786708 5.02463255 3 7 C0 2.25 0 2.25 0 0 Z " fill="#2A2A51" transform="translate(172,137)"/>
<path d="M0 0 C0.66 0.33 1.32 0.66 2 1 C0 4 0 4 -2 4.8125 C-2.66 4.874375 -3.32 4.93625 -4 5 C-4.66 4.34 -5.32 3.68 -6 3 C-4.03533587 1.93224776 -2.03144641 0.93446535 0 0 Z " fill="#0C0C31" transform="translate(140,249)"/>
<path d="M0 0 C2.31 1.65 4.62 3.3 7 5 C6.01 5.495 6.01 5.495 5 6 C2.375 5.0625 2.375 5.0625 0 4 C0 2.68 0 1.36 0 0 Z " fill="#9591EA" transform="translate(153,119)"/>
</svg>
